<?xml version="1.0" encoding="UTF-8" standalone="no"?>
<!-- Created with Inkscape (http://www.inkscape.org/) -->

<svg
   version="1.1"
   id="svg1"
   width="24"
   height="24"
   viewBox="0 0 24 24"
   sodipodi:docname="kokona-modify.svg"
   inkscape:export-filename="..\test.svg"
   inkscape:export-xdpi="96"
   inkscape:export-ydpi="96"
   xmlns:inkscape="http://www.inkscape.org/namespaces/inkscape"
   xmlns:sodipodi="http://sodipodi.sourceforge.net/DTD/sodipodi-0.dtd"
   xmlns="http://www.w3.org/2000/svg"
   xmlns:svg="http://www.w3.org/2000/svg">
  <defs
     id="defs1" />
  <sodipodi:namedview
     id="namedview1"
     pagecolor="#ffffff"
     bordercolor="#000000"
     borderopacity="0.25"
     inkscape:showpageshadow="2"
     inkscape:pageopacity="0.0"
     inkscape:pagecheckerboard="0"
     inkscape:deskcolor="#d1d1d1" />
  <g
     inkscape:groupmode="layer"
     inkscape:label="Image"
     id="g1">
    <g
       id="g7676"
       transform="matrix(0.09378598,0,0,0.09367668,30.410015,-8.7464598)">
      <path
         style="fill:#c5c5c5;fill-opacity:1"
         d="m -209.17134,348.66194 c -106.06811,-13.46955 -152.3892,-137.33319 -80.24993,-214.59015 77.23458,-82.713763 215.15973,-31.38541 220.92221,82.21541 3.85113,75.92082 -66.19247,141.8329 -140.67228,132.37474 z m 28.5,-10.40958 c 16.34965,-2.32451 32.72076,-8.15475 45.80395,-16.31216 6.03423,-3.76237 14.44271,-10.89467 11.19605,-9.4968 -0.55,0.23681 -3.21991,1.44287 -5.93314,2.68014 -10.30868,4.70092 -22.20072,1.66638 -12.35488,-3.15264 9.77391,-4.78382 22.01988,-23.42111 19.80297,-30.13839 -3.97888,-12.05612 -21.75073,-21.81223 -31.57744,-17.33488 -2.2648,1.03191 -2.84607,0.95131 -3.94128,-0.54648 -4.22306,-5.77538 7.38209,-12.0921 17.67794,-9.62217 6.26206,1.50225 6.23931,1.54567 2.91664,-5.56635 -1.53542,-3.28649 -3.68146,-7.96918 -4.76898,-10.40598 l -1.97731,-4.43054 -3.30986,4.93054 c -1.82042,2.7118 -5.98188,7.67691 -9.2477,11.03357 -4.79493,4.92832 -6.04491,6.90124 -6.49407,10.25 -1.20448,8.98006 -15.36361,-3.50699 -23.05781,-20.33486 -6.62286,-14.48474 -6.21791,-13.9853 -11.61753,-14.32836 -5.37891,-0.34174 -8.31992,1.61589 -13.23582,8.8102 -1.31536,1.925 -4.41435,5.975 -6.88663,9 -5.9176,7.24056 -5.7428,7.45652 2.57943,3.18666 11.31882,-5.80731 19.62988,-5.87414 25.02638,-0.20125 7.38435,7.76257 3.80744,14.20657 -4.64805,8.37372 -7.99548,-5.51553 -27.7433,0.32254 -30.27174,8.94927 -1.41602,4.8313 -1.48205,17.55088 -0.10832,20.86735 2.25125,5.43501 -3.20583,5.84473 -8.74485,0.65656 -7.77503,-7.28256 -8.32529,20.73735 -0.5757,29.31522 18.48856,20.46463 32.78174,26.79847 53.74775,23.81763 z m -4.83016,-8.57913 c -13.06719,-7.08221 -19.82105,-51.3462 -7.84229,-51.39747 23.30218,-0.0997 37.64255,8.80193 36.96158,22.9436 -1.05284,21.86418 -15.40395,35.88735 -29.11929,28.45387 z m 15.00128,-4.3271 c 9.53706,-5.81523 14.7189,-28.79151 7.84281,-34.77505 -13.06762,-11.3714 -32.08784,-4.79933 -31.95272,11.04065 0.16029,18.78966 12.42245,30.86084 24.10991,23.7344 z m 37.03012,-37.69103 c -1.47272,-1.47271 -0.66087,-7.09446 1.27791,-8.84903 2.46841,-2.23388 3.31666,-0.70397 2.83748,5.11765 -0.302,3.66915 -2.33465,5.51213 -4.11539,3.73138 z m -8.02271,-2.07903 c -0.86231,-1.39524 1.60426,-10.36127 2.74572,-9.98079 1.86992,0.62331 1.34399,10.11287 -0.58101,10.48359 -0.91122,0.17549 -1.88534,-0.0508 -2.16471,-0.5028 z m -8.01186,-0.95554 c -1.021,-1.021 -0.79246,-6.22977 0.36851,-8.39907 1.83517,-3.42904 2.96482,-2.07043 2.96482,3.56574 0,5.2209 -1.20236,6.96431 -3.33333,4.83333 z m -58.25825,-8.71138 c -0.84854,-2.21126 1.08372,-8.12195 2.65515,-8.12195 0.81704,0 1.57081,1.16448 1.74808,2.70055 0.53558,4.64095 -3.02191,9.02105 -4.40323,5.4214 z m -15.15842,-0.28423 c -1.64607,-0.6642 -1.57779,-1.91255 0.38586,-7.05429 1.8228,-4.77293 3.04402,-5.40706 3.89367,-2.02182 0.45675,1.81985 -1.8965,9.95859 -2.79295,9.65944 -0.13012,-0.0434 -0.79908,-0.30592 -1.48658,-0.58333 z m 7.81239,-0.76255 c -1.01367,-1.2214 -0.92237,-2.37493 0.47824,-6.04238 2.62677,-6.8781 5.19828,-5.77662 3.55794,1.52401 -1.16336,5.17775 -2.36891,6.52732 -4.03618,4.51837 z m -24.06239,49.06581 c 0,-4.68544 -1.18299,-7.64098 -3.05841,-7.64098 -1.18801,0 -0.89179,12.41274 0.31401,13.15797 2.03704,1.25896 2.7444,-0.16303 2.7444,-5.51699 z m -8.53275,0.60902 c 4.1243,-10.59495 -0.47022,-32.75 -6.79171,-32.75 -1.63831,0 -7.16102,22.47632 -6.33002,25.76188 1.23319,4.87572 11.76141,10.48264 13.12173,6.98812 z m -17.45922,-13.77868 c 1.62372,-5.79935 1.09,-6.2206 -2.37672,-1.87589 -2.25257,2.82305 -2.56118,3.78414 -1.59062,4.9536 1.91019,2.30163 2.61411,1.75555 3.96734,-3.07771 z m 139.14148,-1.99016 c 2.94277,-1.93536 7.93059,-6.32286 11.08404,-9.75 6.41406,-6.97072 8.08116,-5.78129 2.59812,1.8537 -4.79885,6.68229 -2.8251,6.25497 3.71475,-0.80425 29.78179,-32.14691 38.49975,-80.25901 18.27806,-100.87164 -31.30711,-31.91235 -75.35759,-37.32717 -123.67162,-15.20207 -21.39268,9.79664 -50.77081,19.25599 -59.96657,19.30841 -6.50729,0.0371 -6.39055,3.73921 0.21879,6.93874 13.30437,6.44054 31.87876,1.65644 47.94045,-12.34773 8.14136,-7.09845 11.15447,-8.67744 11.15447,-5.8454 0,0.60184 -1.87711,2.45403 -4.17135,4.11597 -18.46302,13.37454 -33.5381,44.72957 -33.71427,70.12311 -0.10643,15.34242 4.56098,32.48989 6.93914,25.49347 0.37268,-1.09641 1.96049,-4.82421 3.52847,-8.284 2.51494,-5.54929 2.74482,-6.84972 1.9509,-11.03605 -1.4736,-7.77026 0.61291,-19.17342 3.50829,-19.17342 1.00653,0 1.18805,2.08004 0.80722,9.25 -0.40737,7.66958 -0.1801,9.83782 1.33015,12.69045 2.94691,5.56626 3.7968,4.70289 4.13128,-4.19681 0.36044,-9.59031 2.33976,-18.13191 5.77048,-24.90213 1.33815,-2.64071 2.67312,-6.72284 2.96659,-9.0714 0.29348,-2.34856 1.94816,-7.34245 3.67708,-11.09754 3.54447,-7.69835 3.39723,-8.04144 -3.87878,-9.03873 -9.91045,-1.35838 -11.17396,-4.63384 -1.7875,-4.63384 25.83687,0 54.29883,-14.98755 69.12976,-36.40247 3.09791,-4.47318 4.48549,-2.55425 2.65681,3.67419 -4.12544,14.05118 -13.33166,25.05316 -27.33612,32.66831 -8.63849,4.69732 -10.31334,6.78248 -7.84073,9.7616 0.73292,0.88305 1.34492,3.51463 1.36,5.84796 0.0452,6.99845 15.36945,32.86825 18.37097,31.01321 0.44119,-0.27267 1.05354,-6.69835 1.36078,-14.27928 0.57952,-14.29962 2.03583,-22.74802 4.34802,-25.224 2.259,-2.41902 2.7919,-0.35235 1.5976,6.1957 -1.4746,8.08479 -2.67475,22.74478 -1.86202,22.74478 5.45962,0 20.04806,-26.6396 21.49128,-39.24472 0.73618,-6.42983 2.09702,-7.73607 3.60179,-3.45729 0.91562,2.60357 -0.47749,11.82015 -2.93595,19.42368 -0.75395,2.33182 -0.77152,2.31892 7.19852,5.28709 3.91482,1.45795 13.30159,10.78915 13.30159,13.22285 0,2.46843 -0.3716,2.33974 -8.12207,-2.81276 -3.79007,-2.51963 -7.32733,-4.43213 -7.86059,-4.25 -3.16465,1.08087 15.09458,31.83115 18.90104,31.83115 3.62107,0 7.95407,-23.65405 8.05086,-43.95 0.0455,-9.54212 2.05346,-6.34266 3.21272,5.11911 2.70083,26.70371 -8.91856,62.96447 -25.08018,78.26798 -5.84749,5.53702 -3.64696,6.10462 4.04773,1.04407 z m -142.96015,-7.23116 c 8.12338,-12.23187 8.42781,-13.94792 2.07203,-11.67997 -8.49843,3.03251 -9.72806,1.21019 -4.804,-7.11959 7.87987,-13.32999 13.34817,-26.74078 8.54261,-20.95044 -3.06897,3.69788 -8.35211,0.21253 -5.7342,-3.78291 1.40004,-2.13673 1.30592,-2.51281 -1.38171,-5.52078 -5.38848,-6.03077 -2.29387,-13.83108 4.51098,-11.37041 3.69729,1.33695 5.60211,0.95151 5.60868,-1.13492 0.002,-0.65504 2.02706,-2.02305 4.5,-3.04004 6.11004,-2.51271 5.71567,-3.07699 -3.03124,-4.3371 -13.52029,-1.9478 -26.47251,-15.48067 -26.47251,-27.65928 0,-4.68028 1.16463,-5.29104 11.5162,-6.03935 17.74683,-1.2829 24.43032,-3.38874 51.79792,-16.32053 53.01218,-25.04939 98.49581,-20.57431 133.53053,13.13791 l 7.34466,7.06741 -0.67001,-4.5 c -2.54025,-17.06119 -13.23984,-40 -18.65762,-40 -1.09624,0 -2.86358,-0.46583 -3.92742,-1.03518 -1.64964,-0.88287 -1.93508,-0.69893 -1.93984,1.25 -0.018,7.37803 -5.52054,14.78801 -8.001,10.77454 -0.73071,-1.18233 -1.25217,-1.18884 -3.39429,-0.0424 -4.27221,2.28641 -8.78358,-5.0916 -7.13345,-11.66623 0.59462,-2.36916 0.53979,-2.39796 -1.6478,-0.86571 -7.00512,4.90658 -17.82054,0.32732 -12.06788,-5.10955 2.75,-2.59904 2.75,-2.59904 -0.5,-1.97725 -6.35564,1.21596 -2.1452,-8.31247 4.3989,-9.95494 2.33566,-0.58621 2.33566,-0.58621 0.33592,-3.39459 -3.45061,-4.84594 -3.93168,-12.43315 -0.7375,-11.63146 6.24847,1.56827 0.45124,-4.27867 -8.74732,-8.82231 -60.51882,-29.893353 -134.08708,-3.0361 -160.68616,58.66101 -9.42606,21.86395 -12.8649,51.8991 -5.10942,44.62616 4.19411,-3.93316 8.65614,3.63858 6.62612,11.24406 -0.98144,3.67698 -0.98144,3.67698 3.53271,1.68015 7.7662,-3.43536 15.45821,0.55667 11.12743,5.77495 -1.35101,1.62787 -0.51446,3.48876 1.56834,3.48876 4.65505,0 -1.15656,7.56951 -6.65608,8.66941 -2.59747,0.5195 -2.61991,0.59065 -1.12917,3.57892 1.3844,2.77509 1.36342,3.34145 -0.2336,6.30695 -0.96503,1.79194 -2.06844,4.76257 -2.45204,6.6014 -0.58549,2.80666 -1.13018,3.33699 -3.39335,3.30386 -5.35106,-0.0783 4.61267,17.40751 18.01392,31.61355 8.00654,8.48735 7.96129,8.48675 13.48066,0.17591 z m -22.67107,-105.61297 c -4.39175,-3.21132 1.31574,-6.28187 26.98171,-14.51576 29.61138,-9.49961 67.34182,-17.67945 69.87302,-15.14825 0.56484,0.56484 0.82448,1.04528 0.57698,1.06764 -7.62737,0.68915 -66.74789,19.3156 -83.95,26.4492 -7.95131,3.29735 -11.20094,3.81491 -13.48171,2.14717 z m 19.23171,-21.71713 c -2.83541,-1.65148 -0.54401,-10.99617 8.14953,-33.235 1.43466,-3.66998 1.43116,-3.6849 -0.86434,-3.6849 -2.32219,0 -4.29031,-3.17158 -3.40301,-5.48386 1.05842,-2.75818 14.94781,-11.51614 18.26365,-11.51614 4.75784,0 4.64536,1.08833 -2.20252,21.3098 -3.57426,10.55461 -7.29675,22.02931 -8.27221,25.49933 -2.18675,7.77898 -6.2615,10.26157 -11.6711,7.11077 z m 38.61198,-10.55694 c -16.45977,-8.49603 -4.45903,-48.39421 15.35561,-51.05191 10.71666,-1.4374 16.8544,5.26139 16.66553,18.18895 -0.31636,21.65327 -18.19348,40.00037 -32.02114,32.86296 z m 12.86118,-10.76274 c 9.89824,-5.55402 14.10061,-24.1336 7.05269,-31.18151 -5.81401,-5.81402 -18.27322,10.43321 -18.27506,23.83129 -0.001,9.3512 3.532,11.66537 11.22237,7.35022 z m 39.77684,4.23466 c -14.4681,-4.07067 -18.32948,-24.06582 -7.52277,-38.95461 9.46927,-13.04616 28.99419,-11.43969 34.07396,2.80353 7.12421,19.97565 -8.48838,41.23314 -26.55119,36.15108 z m 13.94725,-13.78213 c 9.33121,-9.33121 6.44896,-24.84515 -4.68777,-25.23242 -7.26721,-0.2527 -12.00834,6.35194 -12.48087,17.38649 -0.53538,12.50254 8.41965,16.59492 17.16864,7.84593 z m -138.94725,104.00627 c 0,-0.51754 -0.49959,-1.24975 -1.11021,-1.62713 -0.66775,-0.4127 -0.87938,-2.10857 -0.53102,-4.25527 0.57919,-3.56912 0.57919,-3.56912 -1.93446,-1.05547 -2.14696,2.14695 -2.36487,2.90499 -1.49373,5.19625 0.96958,2.5502 5.06942,3.95871 5.06942,1.74162 z m 94,-17.27125 c 0,-2.9779 -4.76396,1.09757 -5.50829,4.71223 -0.61775,3 -0.61775,3 2.44527,-0.46223 1.68466,-1.90422 3.06302,-3.81672 3.06302,-4.25 z m 6,-9.39227 c 0,-2.7471 -4.8523,-1.5818 -6.47432,1.55484 -2.08696,4.03573 -2.05387,4.06007 2.47432,1.8197 2.2,-1.08848 4,-2.60702 4,-3.37454 z m -39.88893,2.3545 c 0.64979,-1.2375 2.91562,-4.33745 5.03518,-6.88878 5.02292,-6.04612 4.95187,-6.14289 -2.39625,-3.26359 -10.13721,3.97219 -13.45296,8.98097 -7.52216,11.36301 3.3114,1.32999 3.58478,1.26221 4.88323,-1.21064 z m 50.72226,-2.73635 c 1.42927,-0.008 2.16399,-0.49797 1.89626,-1.26365 -0.24039,-0.6875 -1.29039,-1.12483 -2.33333,-0.97185 -4.60856,0.676 -6.39626,1.33491 -6.39626,2.35753 0,0.65023 0.91706,0.85182 2.25,0.49461 1.2375,-0.33164 3.3,-0.60913 4.58333,-0.61664 z m 80.32128,-72.93091 c 1.53093,0.81933 1.84539,0.61701 1.84539,-1.18731 0,-1.19622 0.74602,-2.72045 1.65782,-3.38717 1.47511,-1.07863 1.3649,-1.28574 -1,-1.8793 -1.4618,-0.36688 -2.65782,-1.33349 -2.65782,-2.14801 0,-2.18264 -1.68301,-1.80112 -2.28975,0.51905 -0.32453,1.24099 -1.36401,2 -2.73908,2 -1.85266,0 -2.0127,0.24503 -0.97594,1.49425 0.68207,0.82184 1.02858,2.60084 0.77004,3.95333 -0.43687,2.28535 -0.3283,2.35976 1.53693,1.0533 1.42742,-0.9998 2.53993,-1.12055 3.85241,-0.41814 z"
         id="path7679" />
    </g>
  </g>
</svg>
