<?xml version="1.0" encoding="UTF-8" standalone="no"?>
<!-- Created with Inkscape (http://www.inkscape.org/) -->

<svg
   version="1.1"
   id="svg1"
   width="24"
   height="24"
   viewBox="0 0 24 24"
   sodipodi:docname="hifumi.png"
   xmlns:inkscape="http://www.inkscape.org/namespaces/inkscape"
   xmlns:sodipodi="http://sodipodi.sourceforge.net/DTD/sodipodi-0.dtd"
   xmlns:xlink="http://www.w3.org/1999/xlink"
   xmlns="http://www.w3.org/2000/svg"
   xmlns:svg="http://www.w3.org/2000/svg">
  <defs
     id="defs1" />
  <sodipodi:namedview
     id="namedview1"
     pagecolor="#ffffff"
     bordercolor="#000000"
     borderopacity="0.25"
     inkscape:showpageshadow="2"
     inkscape:pageopacity="0.0"
     inkscape:pagecheckerboard="0"
     inkscape:deskcolor="#d1d1d1" />
  <g
     inkscape:groupmode="layer"
     inkscape:label="Image"
     id="g1">
    <path
       style="display:inline;fill:#c5c5c5;fill-opacity:1;stroke-width:0.0400207"
       d="M 11.321814,23.964194 C 7.0988708,23.603373 3.6497482,21.492587 1.6482005,18.044155 -3.0056742,10.026074 2.7473938,0 12.002127,0 c 8.956604,0 14.727787,9.4130879 10.682562,17.423798 -2.114232,4.186795 -6.870148,6.924268 -11.362875,6.540396 z m 1.980911,-1.655418 c 0.618429,-0.09029 0.611205,-0.08487 0.522556,-0.392071 -0.03022,-0.104738 -0.111827,-0.415562 -0.181347,-0.69072 -0.06952,-0.275158 -0.177558,-0.671386 -0.240086,-0.880507 -0.167185,-0.559136 -0.395078,-1.405994 -0.409081,-1.520174 -0.0093,-0.07559 -0.06485,-0.125462 -0.232291,-0.208478 -0.202301,-0.100297 -0.294043,-0.110605 -0.450387,-0.0506 -0.03212,0.01233 -0.132905,-0.04077 -0.227604,-0.119898 -0.09348,-0.07811 -0.183389,-0.14202 -0.199796,-0.14202 -0.02889,0 -0.142722,0.438762 -0.482859,1.861071 -0.08949,0.374215 -0.21926,0.88751 -0.28838,1.140656 -0.203526,0.745412 -0.186046,1.013382 0.0683,1.047159 0.277292,0.03682 1.780083,0.0054 2.120976,-0.04441 z m -3.4139946,-0.21229 c 0.042347,-0.03369 0.070768,-0.14809 0.087004,-0.350202 0.013258,-0.165095 0.042912,-0.489281 0.065895,-0.720414 0.02299,-0.231133 0.0602,-0.717413 0.08269,-1.080622 0.02249,-0.363209 0.05116,-0.826975 0.06371,-1.030593 0.02591,-0.420522 0.0067,-0.44305 -0.2129479,-0.250143 -0.1534906,0.134779 -0.199888,0.144924 -0.2908738,0.0636 C 9.6494593,18.697052 9.5129761,18.628502 9.3809153,18.57579 9.1438383,18.48115 9.1406488,18.47777 9.1282871,18.307697 9.1213971,18.212957 9.0986731,18.114912 9.0777841,18.089806 8.7861019,17.739249 8.7549916,17.650771 8.86459,17.48348 8.924405,17.39218 8.922821,17.37664 8.840019,17.242645 8.791333,17.163865 8.758057,17.095852 8.766073,17.091507 c 0.00801,-0.0043 0.054841,-0.03041 0.1040678,-0.05793 0.1282791,-0.07171 0.4353924,-0.05977 0.6908579,0.02686 0.25214,0.0855 0.2535927,0.08466 0.4390773,-0.254927 0.09614,-0.176009 0.09031,-0.367416 -0.00819,-0.268907 -0.075155,0.07516 -0.1907797,0.05634 -0.1907797,-0.03106 0,-0.04278 -0.040022,-0.105813 -0.088941,-0.140081 -0.088941,-0.0623 -0.088941,-0.0623 0,-0.124607 0.1747284,-0.122399 0.093835,-0.267114 -0.2319227,-0.414893 -0.226032,-0.102539 -0.3593773,-0.107391 -0.3596454,-0.01309 -4.002e-4,0.144223 -0.184693,0.316029 -0.278064,0.259234 -0.059731,-0.03633 -0.1056806,-0.0392 -0.1602337,-0.01001 -0.1296796,0.06941 -0.2144306,0.05163 -0.1864578,-0.03911 0.013574,-0.04402 0.035132,-0.113586 0.047914,-0.15458 0.01654,-0.05306 -7.604e-4,-0.08081 -0.060028,-0.09631 -0.076695,-0.02006 -0.1217801,-0.14763 -0.053253,-0.15067 0.2080637,-0.0092 0.2166236,-0.169355 0.018324,-0.342842 C 8.215984,15.074904 7.8013012,14.577693 7.698626,14.379121 7.608473,14.204764 7.64214,13.870313 7.786066,13.510513 7.87269,13.293965 7.8939957,13.172015 7.8993021,12.862367 c 0.0036,-0.209777 0.019445,-0.40964 0.035224,-0.44414 0.019341,-0.0423 -0.022138,-0.12051 -0.1273626,-0.240138 -0.4370611,-0.496895 -0.4909579,-0.93393 -0.088621,-0.718581 0.1114353,0.05965 0.1322809,-0.0037 0.085159,-0.258587 -0.02239,-0.12114 -0.036325,-0.365865 -0.030962,-0.543833 0.011673,-0.38741 0.036749,-0.367019 -0.3327211,-0.270573 C 6.7404285,10.569138 6.2209816,10.437401 6.1451347,10.05812 6.1312007,9.9884268 6.0258918,9.8620361 5.8586509,9.7142771 5.0039016,8.9590968 5.4369409,8.1121545 6.819733,7.8345768 7.539196,7.690155 8.0338876,7.8196382 8.0953959,8.1684749 8.1244289,8.33314 8.0660629,8.3373208 7.9989919,8.1753804 7.8845232,7.8989879 7.4579269,7.837725 7.0759272,8.0428198 6.8069394,8.1872389 6.7774659,8.2778402 6.9879222,8.3133658 7.3150967,8.368594 7.3555273,8.4803414 7.0429552,8.4654849 6.5071607,8.4400178 6.5841281,8.6709058 7.2205889,8.9983382 7.7851247,9.2887672 8.8144302,9.2965036 9.6283727,9.0164358 10.050872,8.8710574 10.04709,8.9288554 9.7133077,7.7182159 9.5073729,6.9712879 9.3644272,5.3097567 9.4768069,4.9692128 9.5170979,4.8471094 9.5118109,4.7962557 9.4398379,4.6136407 9.3589169,4.408309 9.3583649,4.3949918 9.4246749,4.2479216 9.4815489,4.1217842 9.4856869,4.0693173 9.4485099,3.9456267 9.2595529,3.3168705 9.3373087,3.0400493 9.766106,2.8149714 9.9380691,2.7247059 9.9480256,2.684921 9.9283326,2.166783 9.9110526,1.71219 9.9914336,1.7306738 9.1251951,1.9820976 1.5282393,4.187093 -0.9321618,13.73739 4.6567233,19.326918 c 1.4126019,1.412765 3.566925,2.591657 5.1467478,2.816414 0.012302,0.0017 0.050667,-0.01933 0.085259,-0.04685 z m 5.6550256,-0.329202 c 3.529788,-1.311481 6.112988,-4.41265 6.718475,-8.065627 C 23.423365,6.6964286 17.395808,0.62263571 10.35284,1.7009159 c -0.293179,0.044885 -0.315093,0.05479 -0.290426,0.1312555 0.01468,0.045489 0.04864,0.3020309 0.07548,0.5700935 0.02882,0.2878187 0.07187,0.5172518 0.10514,0.5603222 0.03099,0.040115 0.106497,0.1323105 0.167798,0.2048803 0.09982,0.1181819 0.110751,0.1599279 0.104748,0.4002301 -0.0087,0.3480068 0.09887,0.797602 0.279628,1.1688035 0.08143,0.167227 0.123349,0.1699877 0.686676,0.045226 0.932301,-0.2064776 1.968326,-0.027863 2.520568,0.4345543 0.219913,0.1841431 0.270068,0.1964282 0.287944,0.070536 0.01517,-0.1068591 0.206395,-0.1844421 0.462993,-0.1878504 0.183817,-0.00244 0.201933,0.02037 0.111324,0.1401778 -0.03231,0.042729 -0.05973,0.1047054 -0.06092,0.1377244 -0.005,0.1395767 -0.139036,0.2426604 -0.329872,0.2537491 -0.153619,0.00893 -0.202841,0.03191 -0.275631,0.1287025 -0.04874,0.06481 -0.142005,0.1751827 -0.207255,0.245273 -0.284211,0.305296 0.516149,0.5499019 0.83109,0.2539965 0.0768,-0.072152 0.101339,-0.080271 0.101339,-0.033521 0,0.1127905 -0.311612,0.279261 -0.565909,0.3023227 -0.255453,0.023166 -0.26166,0.030077 -0.176985,0.1970109 0.03161,0.062319 0.104512,0.2159342 0.162002,0.3413679 0.162263,0.3540185 0.417076,0.4665168 0.751426,0.3317485 0.0517,-0.020838 0.06454,-0.012907 0.04817,0.029751 -0.02625,0.068413 -0.302019,0.2309108 -0.391868,0.2309108 -0.105344,0 -0.11284,0.067948 -0.03405,0.3086939 0.06339,0.1936958 0.083,0.6918815 0.02724,0.6918815 -0.0055,0 -0.0888,-0.072041 -0.185113,-0.160092 -0.227581,-0.2080521 -0.244417,-0.2043428 -0.372984,0.082182 -0.110695,0.2466867 -0.08307,0.4381168 0.06323,0.4381168 0.02905,0 0.03461,0.060242 0.01664,0.1801036 -0.04552,0.3035874 0.393165,0.2689395 2.271601,-0.1794132 0.929404,-0.221834 2.03378,-0.043655 2.238322,0.3611277 0.156204,0.3091254 0.01627,0.7211117 -0.243608,0.7172007 -0.106493,-0.0016 -0.106493,-0.0016 0.003,-0.06105 0.346043,-0.1877819 0.207355,-0.6644989 -0.227905,-0.7833829 -0.33906,-0.092609 -1.356284,0.047544 -1.082194,0.1491042 1.045529,0.3874028 1.302472,0.9485947 0.789672,1.7247247 -0.366005,0.55395 -1.33325,0.749787 -1.800137,0.364471 -0.102251,-0.08439 -0.0588,-0.159152 0.05076,-0.08735 0.262232,0.17184 1.042844,-0.08263 1.203718,-0.3924 0.281605,-0.542251 -0.08318,-0.708075 -1.561767,-0.709961 C 14.50097,10.300338 14.142313,10.151677 13.798231,9.4281324 13.66495,9.147866 13.529683,9.0712275 13.309418,9.1511815 c -0.09175,0.033303 -0.265778,0.072416 -0.38673,0.086918 -0.234672,0.028137 -0.360354,0.1074345 -0.360354,0.2273679 0,0.141449 0.548885,0.6013046 0.784221,0.6570216 0.141641,0.03353 0.532665,0.318122 0.564036,0.410508 0.01249,0.03678 0.07838,0.114683 0.146423,0.17311 0.11753,0.100926 0.124237,0.122721 0.134274,0.436417 0.0069,0.216211 0.03025,0.352233 0.06758,0.394057 0.03136,0.03513 0.06537,0.171933 0.07557,0.304009 0.02343,0.303384 0.146475,0.798351 0.28852,1.160667 0.284463,0.725577 0.620614,1.713129 0.620614,1.823248 0,0.04022 0.01566,0.0828 0.03479,0.09462 0.03188,0.0197 0.0534,0.230099 0.108806,1.063842 0.0275,0.4139 0.05131,0.546722 0.126082,0.703544 0.0518,0.108645 0.05592,0.162948 0.02098,0.276809 -0.04757,0.155002 0.0091,0.259108 0.142405,0.261634 0.254549,0.0048 0.381816,0.428113 0.187226,0.622722 -0.116109,0.116125 -0.122072,0.14838 -0.04002,0.216488 0.09416,0.07815 0.07169,0.159655 -0.08469,0.307159 -0.134966,0.127305 -0.140361,0.141326 -0.08004,0.207992 0.08032,0.08876 0.08346,0.140986 0.0067,0.111532 -0.06045,-0.0232 -0.303111,0.07883 -0.34812,0.146368 -0.07921,0.118867 -0.505557,0.06521 -0.600928,-0.07563 -0.212714,-0.314121 -0.260316,-0.08269 -0.157025,0.763424 0.02956,0.242139 0.0605,0.512294 0.06877,0.600345 0.0083,0.08805 0.06449,0.535531 0.124953,0.994402 0.127199,0.96536 0.06718,0.916182 0.790244,0.64753 z M 8.8906352,11.750535 c 0.0343,-0.03852 0.1030874,-0.151087 0.1528543,-0.250144 0.2125658,-0.423068 0.7044561,-0.930045 0.9877305,-1.018027 0.113028,-0.0351 0.115337,-0.107586 0.0056,-0.176115 -0.066543,-0.04156 -0.079329,-0.0782 -0.060372,-0.172996 0.013226,-0.06615 0.00434,-0.1570961 -0.019745,-0.2021107 -0.036521,-0.068246 -0.026492,-0.097894 0.060371,-0.1784467 0.09852,-0.091363 0.145904,-0.3184439 0.08017,-0.3841881 -0.02764,-0.027648 -0.2076272,0.042686 -0.2963841,0.115823 -0.09085,0.07486 -0.6841907,0.3617825 -1.0323989,0.4992387 -0.4502232,0.1777258 -0.4437962,0.1612548 -0.2278288,0.5838398 0.2012165,0.393719 0.276207,0.734329 0.2340556,1.063057 -0.025924,0.202159 0.00984,0.239207 0.1159294,0.120069 z M 7.142655,10.335249 c 0.03512,-0.05683 -0.054677,-0.114191 -0.1800068,-0.114982 -0.053461,-3.2e-4 -0.1565561,-0.02208 -0.2290974,-0.04831 -0.072545,-0.02623 -0.1442424,-0.03535 -0.1593373,-0.02026 -0.053661,0.05367 0.1162815,0.183946 0.2597795,0.199146 0.080205,0.0085 0.1762771,0.01847 0.2134942,0.02217 0.037221,0.0037 0.080045,-0.0133 0.095168,-0.03777 z m 6.678917,-4.4422265 c 0.496772,-0.4362208 -0.33461,-0.9175141 -1.581268,-0.9154048 -0.917178,0.00155 -1.158601,0.092971 -1.158601,0.4387267 0,0.3638228 0.04808,0.3927171 0.275315,0.1654564 0.464185,-0.4642387 2.085771,-0.3266831 2.085771,0.1769309 0,0.2018069 0.215067,0.2780539 0.378783,0.1342908 z"
       id="path1" />
  </g>
</svg>
